<?xml version="1.0" encoding="UTF-8" standalone="no"?> <!-- Created with Vectornator for iOS (http://vectornator.io/) --><!DOCTYPE svg PUBLIC "-//W3C//DTD SVG 1.1//EN" "http://www.w3.org/Graphics/SVG/1.1/DTD/svg11.dtd">
<svg height="100%" style="fill-rule:evenodd;clip-rule:evenodd;stroke-linecap:round;stroke-linejoin:round;" xmlns:xlink="http://www.w3.org/1999/xlink" xmlns="http://www.w3.org/2000/svg" xml:space="preserve" width="100%" xmlns:vectornator="http://vectornator.io" version="1.1" viewBox="0 0 1024 1024">
<metadata>
<vectornator:setting key="DisplayWhiteBackground" value="0"/>
<vectornator:setting key="RulersVisible" value="1"/>
<vectornator:setting key="Units" value="Pixels"/>
<vectornator:setting key="New" value="1"/>
<vectornator:setting key="DynamicGuides" value="0"/>
<vectornator:setting key="GuidesVisible" value="1"/>
<vectornator:setting key="SnapToPoints" value="0"/>
<vectornator:setting key="SnapToGrid" value="0"/>
<vectornator:setting key="SnapToGuides" value="1"/>
<vectornator:setting key="DimensionsVisible" value="1"/>
<vectornator:setting key="SnapToEdges" value="0"/>
</metadata>
<defs/>
<g id="Layer 1" vectornator:layerName="Layer 1">
<path d="M564.906+521.972C597.442+591.048+626.696+638.284+652.667+663.68C678.638+689.075+709.034+701.773+743.852+701.773C784.379+701.773+817.628+684.758+843.6+650.728C869.571+616.698+882.557+572.255+882.557+517.401C882.557+463.054+870.57+419.627+846.597+387.121C822.623+354.614+790.658+338.361+750.702+338.361C713.029+338.361+679.209+353.218+649.242+382.931C619.275+412.643+591.163+458.991+564.906+521.972ZM467.37+515.877C435.38+447.816+406.247+401.215+379.97+376.074C353.694+350.932+323.132+338.361+288.287+338.361C247.729+338.361+214.455+355.249+188.463+389.025C162.472+422.802+149.477+466.609+149.477+520.448C149.477+575.811+161.33+619.872+185.036+652.633C208.742+685.393+240.018+701.773+278.862+701.773C317.134+701.773+351.409+686.79+381.684+656.823C411.96+626.856+440.522+579.874+467.37+515.877ZM516.424+417.596C541.975+358.17+574.728+312.331+614.685+280.078C654.642+247.825+699.355+231.699+748.825+231.699C813.516+231.699+869.238+259.508+915.99+315.124C962.742+370.741+986.118+439.182+986.118+520.448C986.118+605.27+963.965+674.6+919.659+728.439C875.354+782.278+818.953+809.197+750.456+809.197C705.335+809.197+665.378+796.499+630.586+771.103C595.794+745.708+557.196+699.742+514.794+633.205C479.458+696.186+443.85+741.264+407.971+768.437C372.092+795.61+331.048+809.197+284.84+809.197C216.886+809.197+160.349+782.024+115.228+727.677C70.107+673.33+47.5465+604.254+47.5465+520.448C47.5465+432.579+68.8839+362.487+111.559+310.172C154.233+257.857+211.45+231.699+283.209+231.699C334.31+231.699+378.343+246.302+415.31+275.507C452.277+304.712+485.981+352.075+516.424+417.596Z" opacity="1" fill="#000000"/>
<path d="M744.011+657.257L816.344+600.881C819.051+597.159+826.832+600.927+831.574+608.47L957.504+802.773C962.245+810.316+963.894+819.449+961.187+823.171L891.953+878.202C889.246+881.925+880.144+879.664+875.403+872.121L747.694+677.656C742.953+670.112+741.304+660.98+744.011+657.257Z" opacity="1" fill="#000000"/>
</g>
</svg>
